<svg width="87" height="22" viewBox="0 0 87 22" fill="none" xmlns="http://www.w3.org/2000/svg">
<g clip-path="url(#clip0_229_2)">
<path d="M36.834 3.766C38.4327 3.766 39.7673 3.95667 40.838 4.338C41.9087 4.71933 42.7593 5.24 43.39 5.9C44.0353 6.54533 44.49 7.29333 44.754 8.144C45.0327 8.99467 45.172 9.88933 45.172 10.828C45.172 11.7667 45.018 12.6687 44.71 13.534C44.4167 14.3993 43.94 15.1693 43.28 15.844C42.6347 16.504 41.7767 17.032 40.706 17.428C39.65 17.8093 38.3593 18 36.834 18H28.694V3.766H36.834ZM31.62 15.492H36.768C37.824 15.492 38.6967 15.3673 39.386 15.118C40.09 14.854 40.6473 14.502 41.058 14.062C41.4687 13.622 41.762 13.1233 41.938 12.566C42.114 12.0087 42.202 11.4293 42.202 10.828C42.202 10.2267 42.114 9.65467 41.938 9.112C41.762 8.56933 41.4687 8.08533 41.058 7.66C40.6473 7.23467 40.09 6.89733 39.386 6.648C38.6967 6.39867 37.824 6.274 36.768 6.274H31.62V15.492ZM49.543 14.898V12.456H58.959V14.898H49.543ZM46.001 18L52.689 3.766H55.857L62.611 18H59.421L53.569 5.174H54.977L49.169 18H46.001ZM67.2103 13.38V11.048H73.7223C74.4997 11.048 75.1157 10.8427 75.5703 10.432C76.025 10.0067 76.2523 9.42 76.2523 8.672C76.2523 7.89467 76.025 7.30067 75.5703 6.89C75.1157 6.47933 74.4997 6.274 73.7223 6.274H67.5623V18H64.6363V3.766H73.4583C74.2503 3.766 74.991 3.86133 75.6803 4.052C76.3843 4.24267 76.993 4.536 77.5063 4.932C78.0343 5.328 78.445 5.834 78.7383 6.45C79.0317 7.066 79.1783 7.80667 79.1783 8.672C79.1783 9.52267 79.0317 10.2487 78.7383 10.85C78.445 11.4513 78.0343 11.9427 77.5063 12.324C76.993 12.6907 76.3843 12.962 75.6803 13.138C74.991 13.2993 74.2503 13.38 73.4583 13.38H67.2103ZM82.3503 3.766H85.2763V18H82.3503V3.766Z" fill="black"/>
<path d="M3.57823e-07 8.18605C3.57823e-07 9.74015 1.28033 11.0368 2.78412 10.6446C6.62195 9.6436 9.6436 6.62196 10.6446 2.78412C11.0368 1.28033 9.74015 0 8.18605 0H2.81395C1.25985 0 3.57823e-07 1.25985 3.57823e-07 2.81395V8.18605Z" fill="url(#paint0_linear_229_2)"/>
<path d="M8.18605 22C9.74015 22 11.0368 20.7197 10.6446 19.2159C9.6436 15.378 6.62195 12.3564 2.78412 11.3554C1.28033 10.9632 -6.7932e-08 12.2599 0 13.814L2.34822e-07 19.186C3.02754e-07 20.7402 1.25985 22 2.81395 22H8.18605Z" fill="url(#paint1_linear_229_2)"/>
<path d="M21.615 8.1863C22.0073 9.69009 20.6901 11.0073 19.1863 10.615C15.3485 9.61402 12.3268 6.59238 11.3258 2.75454C10.9336 1.25075 12.2507 -0.0664209 13.7545 0.32581C17.5924 1.32682 20.614 4.34846 21.615 8.1863Z" fill="url(#paint2_linear_229_2)"/>
<path d="M19.1863 11.3258C20.6901 10.9336 22.0073 12.2508 21.615 13.7545C20.614 17.5924 17.5924 20.614 13.7545 21.615C12.2507 22.0073 10.9336 20.6901 11.3258 19.1863C12.3268 15.3485 15.3485 12.3268 19.1863 11.3258Z" fill="url(#paint3_linear_229_2)"/>
</g>
<defs>
<linearGradient id="paint0_linear_229_2" x1="1.81195" y1="1.83827" x2="14.2068" y2="18.4747" gradientUnits="userSpaceOnUse">
<stop stop-color="#D259FE"/>
<stop offset="0.284317" stop-color="#AD59FF"/>
<stop offset="1" stop-color="#7B67FF"/>
</linearGradient>
<linearGradient id="paint1_linear_229_2" x1="10.8425" y1="6.14888e-06" x2="10.8425" y2="22" gradientUnits="userSpaceOnUse">
<stop offset="0.194311" stop-color="#FF5548"/>
<stop offset="1" stop-color="#FF358C"/>
</linearGradient>
<linearGradient id="paint2_linear_229_2" x1="10.8424" y1="-1.05166e-07" x2="5.65122" y2="19.5974" gradientUnits="userSpaceOnUse">
<stop stop-color="#39FF80"/>
<stop offset="0.524332" stop-color="#1CDDDD"/>
</linearGradient>
<linearGradient id="paint3_linear_229_2" x1="11.2558" y1="11.2558" x2="21.7442" y2="11.2558" gradientUnits="userSpaceOnUse">
<stop stop-color="#FF7E3E"/>
<stop offset="1" stop-color="#FFC046"/>
</linearGradient>
<clipPath id="clip0_229_2">
<rect width="87" height="22" fill="white"/>
</clipPath>
</defs>
</svg>
