<svg width="93" height="22" viewBox="0 0 93 22" fill="none" xmlns="http://www.w3.org/2000/svg">
<g clip-path="url(#clip0_229_2)">
<path d="M37.728 2.472C39.472 2.472 40.928 2.68 42.096 3.096C43.264 3.512 44.192 4.08 44.88 4.8C45.584 5.504 46.08 6.32 46.368 7.248C46.672 8.176 46.824 9.152 46.824 10.176C46.824 11.2 46.656 12.184 46.32 13.128C46 14.072 45.48 14.912 44.76 15.648C44.056 16.368 43.12 16.944 41.952 17.376C40.8 17.792 39.392 18 37.728 18H28.848V2.472H37.728ZM32.04 15.264H37.656C38.808 15.264 39.76 15.128 40.512 14.856C41.28 14.568 41.888 14.184 42.336 13.704C42.784 13.224 43.104 12.68 43.296 12.072C43.488 11.464 43.584 10.832 43.584 10.176C43.584 9.52 43.488 8.896 43.296 8.304C43.104 7.712 42.784 7.184 42.336 6.72C41.888 6.256 41.28 5.888 40.512 5.616C39.76 5.344 38.808 5.208 37.656 5.208H32.04V15.264ZM51.5923 14.616V11.952H61.8643V14.616H51.5923ZM47.7283 18L55.0243 2.472H58.4803L65.8483 18H62.3683L55.9843 4.008H57.5203L51.1843 18H47.7283ZM70.8658 12.96V10.416H77.9698C78.8178 10.416 79.4898 10.192 79.9858 9.744C80.4818 9.28 80.7298 8.64 80.7298 7.824C80.7298 6.976 80.4818 6.328 79.9858 5.88C79.4898 5.432 78.8178 5.208 77.9698 5.208H71.2498V18H68.0578V2.472H77.6818C78.5458 2.472 79.3538 2.576 80.1058 2.784C80.8738 2.992 81.5378 3.312 82.0978 3.744C82.6738 4.176 83.1218 4.728 83.4418 5.4C83.7618 6.072 83.9218 6.88 83.9218 7.824C83.9218 8.752 83.7618 9.544 83.4418 10.2C83.1218 10.856 82.6738 11.392 82.0978 11.808C81.5378 12.208 80.8738 12.504 80.1058 12.696C79.3538 12.872 78.5458 12.96 77.6818 12.96H70.8658ZM87.3821 2.472H90.5741V18H87.3821V2.472Z" fill="black"/>
<path d="M3.57823e-07 8.18605C3.57823e-07 9.74015 1.28033 11.0368 2.78412 10.6446C6.62195 9.6436 9.6436 6.62196 10.6446 2.78412C11.0368 1.28033 9.74015 0 8.18605 0H2.81395C1.25985 0 3.57823e-07 1.25985 3.57823e-07 2.81395V8.18605Z" fill="url(#paint0_linear_229_2)"/>
<path d="M8.18605 22C9.74015 22 11.0368 20.7197 10.6446 19.2159C9.6436 15.378 6.62195 12.3564 2.78412 11.3554C1.28033 10.9632 -6.7932e-08 12.2599 0 13.814L2.34822e-07 19.186C3.02754e-07 20.7402 1.25985 22 2.81395 22H8.18605Z" fill="url(#paint1_linear_229_2)"/>
<path d="M21.615 8.1863C22.0073 9.69009 20.6901 11.0073 19.1863 10.615C15.3485 9.61402 12.3268 6.59238 11.3258 2.75454C10.9336 1.25075 12.2507 -0.0664209 13.7545 0.32581C17.5924 1.32682 20.614 4.34846 21.615 8.1863Z" fill="url(#paint2_linear_229_2)"/>
<path d="M19.1863 11.3258C20.6901 10.9336 22.0073 12.2508 21.615 13.7545C20.614 17.5924 17.5924 20.614 13.7545 21.615C12.2507 22.0073 10.9336 20.6901 11.3258 19.1863C12.3268 15.3485 15.3485 12.3268 19.1863 11.3258Z" fill="url(#paint3_linear_229_2)"/>
</g>
<defs>
<linearGradient id="paint0_linear_229_2" x1="1.81195" y1="1.83827" x2="14.2068" y2="18.4747" gradientUnits="userSpaceOnUse">
<stop stop-color="#D259FE"/>
<stop offset="0.284317" stop-color="#AD59FF"/>
<stop offset="1" stop-color="#7B67FF"/>
</linearGradient>
<linearGradient id="paint1_linear_229_2" x1="10.8425" y1="6.14888e-06" x2="10.8425" y2="22" gradientUnits="userSpaceOnUse">
<stop offset="0.194311" stop-color="#FF5548"/>
<stop offset="1" stop-color="#FF358C"/>
</linearGradient>
<linearGradient id="paint2_linear_229_2" x1="10.8424" y1="-1.05166e-07" x2="5.65122" y2="19.5974" gradientUnits="userSpaceOnUse">
<stop stop-color="#39FF80"/>
<stop offset="0.524332" stop-color="#1CDDDD"/>
</linearGradient>
<linearGradient id="paint3_linear_229_2" x1="11.2558" y1="11.2558" x2="21.7442" y2="11.2558" gradientUnits="userSpaceOnUse">
<stop stop-color="#FF7E3E"/>
<stop offset="1" stop-color="#FFC046"/>
</linearGradient>
<clipPath id="clip0_229_2">
<rect width="93" height="22" fill="white"/>
</clipPath>
</defs>
</svg>
