<svg width="22" height="22" viewBox="0 0 22 22" fill="none" xmlns="http://www.w3.org/2000/svg">
<path d="M3.57823e-07 8.18605C3.57823e-07 9.74015 1.28033 11.0368 2.78412 10.6446C6.62195 9.6436 9.6436 6.62196 10.6446 2.78412C11.0368 1.28033 9.74015 0 8.18605 0H2.81395C1.25985 0 3.57823e-07 1.25985 3.57823e-07 2.81395V8.18605Z" fill="url(#paint0_linear_158_12)"/>
<path d="M8.18605 22C9.74015 22 11.0368 20.7197 10.6446 19.2159C9.6436 15.378 6.62195 12.3564 2.78412 11.3554C1.28033 10.9632 -6.7932e-08 12.2599 0 13.814L2.34822e-07 19.186C3.02754e-07 20.7402 1.25985 22 2.81395 22H8.18605Z" fill="url(#paint1_linear_158_12)"/>
<path d="M21.615 8.1863C22.0073 9.69009 20.6901 11.0073 19.1863 10.615C15.3485 9.61402 12.3268 6.59238 11.3258 2.75454C10.9336 1.25075 12.2507 -0.0664209 13.7545 0.32581C17.5924 1.32682 20.614 4.34846 21.615 8.1863Z" fill="url(#paint2_linear_158_12)"/>
<path d="M19.1863 11.3258C20.6901 10.9336 22.0073 12.2508 21.615 13.7545C20.614 17.5924 17.5924 20.614 13.7545 21.615C12.2507 22.0073 10.9336 20.6901 11.3258 19.1863C12.3268 15.3485 15.3485 12.3268 19.1863 11.3258Z" fill="url(#paint3_linear_158_12)"/>
<defs>
<linearGradient id="paint0_linear_158_12" x1="1.81195" y1="1.83827" x2="14.2068" y2="18.4747" gradientUnits="userSpaceOnUse">
<stop stop-color="#D259FE"/>
<stop offset="0.284317" stop-color="#AD59FF"/>
<stop offset="1" stop-color="#7B67FF"/>
</linearGradient>
<linearGradient id="paint1_linear_158_12" x1="10.8425" y1="6.14888e-06" x2="10.8425" y2="22" gradientUnits="userSpaceOnUse">
<stop offset="0.194311" stop-color="#FF5548"/>
<stop offset="1" stop-color="#FF358C"/>
</linearGradient>
<linearGradient id="paint2_linear_158_12" x1="10.8424" y1="-1.05166e-07" x2="5.65122" y2="19.5974" gradientUnits="userSpaceOnUse">
<stop stop-color="#39FF80"/>
<stop offset="0.524332" stop-color="#1CDDDD"/>
</linearGradient>
<linearGradient id="paint3_linear_158_12" x1="11.2558" y1="11.2558" x2="21.7442" y2="11.2558" gradientUnits="userSpaceOnUse">
<stop stop-color="#FF7E3E"/>
<stop offset="1" stop-color="#FFC046"/>
</linearGradient>
</defs>
</svg>
