<svg width="149" height="123" viewBox="0 0 149 123" fill="none" xmlns="http://www.w3.org/2000/svg">
<g filter="url(#filter0_f_205_2)">
<path d="M39 57.2791C39 59.6102 40.9205 61.5553 43.1762 60.9669C48.9329 59.4654 53.4654 54.9329 54.9669 49.1762C55.5553 46.9205 53.6102 45 51.2791 45H43.2209C40.8898 45 39 46.8898 39 49.2209V57.2791Z" fill="url(#paint0_linear_205_2)"/>
<path d="M51.2791 78C53.6102 78 55.5553 76.0795 54.9669 73.8238C53.4654 68.0671 48.9329 63.5346 43.1762 62.0331C40.9205 61.4447 39 63.3898 39 65.7209L39 73.7791C39 76.1102 40.8898 78 43.2209 78H51.2791Z" fill="url(#paint1_linear_205_2)"/>
<path d="M71.4225 57.2794C72.0109 59.5351 70.0351 61.5109 67.7794 60.9225C62.0227 59.421 57.4902 54.8886 55.9887 49.1318C55.4004 46.8761 57.3761 44.9004 59.6318 45.4887C65.3886 46.9902 69.921 51.5227 71.4225 57.2794Z" fill="url(#paint2_linear_205_2)"/>
<path d="M67.7794 61.9887C70.0351 61.4004 72.0109 63.3761 71.4225 65.6318C69.921 71.3886 65.3886 75.921 59.6318 77.4225C57.3761 78.0109 55.4004 76.0351 55.9887 73.7794C57.4902 68.0227 62.0227 63.4902 67.7794 61.9887Z" fill="url(#paint3_linear_205_2)"/>
</g>
<path d="M39 57.2791C39 59.6102 40.9205 61.5553 43.1762 60.9669C48.9329 59.4654 53.4654 54.9329 54.9669 49.1762C55.5553 46.9205 53.6102 45 51.2791 45H43.2209C40.8898 45 39 46.8898 39 49.2209V57.2791Z" fill="url(#paint4_linear_205_2)"/>
<path d="M51.2791 78C53.6102 78 55.5553 76.0795 54.9669 73.8238C53.4654 68.0671 48.9329 63.5346 43.1762 62.0331C40.9205 61.4447 39 63.3898 39 65.7209L39 73.7791C39 76.1102 40.8898 78 43.2209 78H51.2791Z" fill="url(#paint5_linear_205_2)"/>
<path d="M71.4225 57.2794C72.0109 59.5351 70.0351 61.5109 67.7794 60.9225C62.0227 59.421 57.4902 54.8886 55.9887 49.1318C55.4004 46.8761 57.3761 44.9004 59.6318 45.4887C65.3886 46.9902 69.921 51.5227 71.4225 57.2794Z" fill="url(#paint6_linear_205_2)"/>
<path d="M67.7794 61.9887C70.0351 61.4004 72.0109 63.3761 71.4225 65.6318C69.921 71.3886 65.3886 75.921 59.6318 77.4225C57.3761 78.0109 55.4004 76.0351 55.9887 73.7794C57.4902 68.0227 62.0227 63.4902 67.7794 61.9887Z" fill="url(#paint7_linear_205_2)"/>
<path d="M93.728 55.472C95.472 55.472 96.928 55.68 98.096 56.096C99.264 56.512 100.192 57.08 100.88 57.8C101.584 58.504 102.08 59.32 102.368 60.248C102.672 61.176 102.824 62.152 102.824 63.176C102.824 64.2 102.656 65.184 102.32 66.128C102 67.072 101.48 67.912 100.76 68.648C100.056 69.368 99.12 69.944 97.952 70.376C96.8 70.792 95.392 71 93.728 71H84.848V55.472H93.728ZM88.04 68.264H93.656C94.808 68.264 95.76 68.128 96.512 67.856C97.28 67.568 97.888 67.184 98.336 66.704C98.784 66.224 99.104 65.68 99.296 65.072C99.488 64.464 99.584 63.832 99.584 63.176C99.584 62.52 99.488 61.896 99.296 61.304C99.104 60.712 98.784 60.184 98.336 59.72C97.888 59.256 97.28 58.888 96.512 58.616C95.76 58.344 94.808 58.208 93.656 58.208H88.04V68.264ZM107.592 67.616V64.952H117.864V67.616H107.592ZM103.728 71L111.024 55.472H114.48L121.848 71H118.368L111.984 57.008H113.52L107.184 71H103.728ZM126.866 65.96V63.416H133.97C134.818 63.416 135.49 63.192 135.986 62.744C136.482 62.28 136.73 61.64 136.73 60.824C136.73 59.976 136.482 59.328 135.986 58.88C135.49 58.432 134.818 58.208 133.97 58.208H127.25V71H124.058V55.472H133.682C134.546 55.472 135.354 55.576 136.106 55.784C136.874 55.992 137.538 56.312 138.098 56.744C138.674 57.176 139.122 57.728 139.442 58.4C139.762 59.072 139.922 59.88 139.922 60.824C139.922 61.752 139.762 62.544 139.442 63.2C139.122 63.856 138.674 64.392 138.098 64.808C137.538 65.208 136.874 65.504 136.106 65.696C135.354 65.872 134.546 65.96 133.682 65.96H126.866ZM143.382 55.472H146.574V71H143.382V55.472Z" fill="black"/>
<defs>
<filter id="filter0_f_205_2" x="-6" y="0" width="122.528" height="123" filterUnits="userSpaceOnUse" color-interpolation-filters="sRGB">
<feFlood flood-opacity="0" result="BackgroundImageFix"/>
<feBlend mode="normal" in="SourceGraphic" in2="BackgroundImageFix" result="shape"/>
<feGaussianBlur stdDeviation="22.5" result="effect1_foregroundBlur_205_2"/>
</filter>
<linearGradient id="paint0_linear_205_2" x1="41.7179" y1="47.7574" x2="60.3102" y2="72.7121" gradientUnits="userSpaceOnUse">
<stop stop-color="#D259FE"/>
<stop offset="0.284317" stop-color="#AD59FF"/>
<stop offset="1" stop-color="#7B67FF"/>
</linearGradient>
<linearGradient id="paint1_linear_205_2" x1="55.2638" y1="45" x2="55.2638" y2="78" gradientUnits="userSpaceOnUse">
<stop offset="0.194311" stop-color="#FF5548"/>
<stop offset="1" stop-color="#FF358C"/>
</linearGradient>
<linearGradient id="paint2_linear_205_2" x1="55.2636" y1="45" x2="47.4768" y2="74.3961" gradientUnits="userSpaceOnUse">
<stop stop-color="#39FF80"/>
<stop offset="0.524332" stop-color="#1CDDDD"/>
</linearGradient>
<linearGradient id="paint3_linear_205_2" x1="55.8837" y1="61.8837" x2="71.6163" y2="61.8837" gradientUnits="userSpaceOnUse">
<stop stop-color="#FF7E3E"/>
<stop offset="1" stop-color="#FFC046"/>
</linearGradient>
<linearGradient id="paint4_linear_205_2" x1="41.7179" y1="47.7574" x2="60.3102" y2="72.7121" gradientUnits="userSpaceOnUse">
<stop stop-color="#D259FE"/>
<stop offset="0.284317" stop-color="#AD59FF"/>
<stop offset="1" stop-color="#7B67FF"/>
</linearGradient>
<linearGradient id="paint5_linear_205_2" x1="55.2638" y1="45" x2="55.2638" y2="78" gradientUnits="userSpaceOnUse">
<stop offset="0.194311" stop-color="#FF5548"/>
<stop offset="1" stop-color="#FF358C"/>
</linearGradient>
<linearGradient id="paint6_linear_205_2" x1="55.2636" y1="45" x2="47.4768" y2="74.3961" gradientUnits="userSpaceOnUse">
<stop stop-color="#39FF80"/>
<stop offset="0.524332" stop-color="#1CDDDD"/>
</linearGradient>
<linearGradient id="paint7_linear_205_2" x1="55.8837" y1="61.8837" x2="71.6163" y2="61.8837" gradientUnits="userSpaceOnUse">
<stop stop-color="#FF7E3E"/>
<stop offset="1" stop-color="#FFC046"/>
</linearGradient>
</defs>
</svg>
