<svg width="93" height="93" viewBox="0 0 93 93" fill="none" xmlns="http://www.w3.org/2000/svg">
<g filter="url(#filter0_f_158_10)">
<path d="M30 42.2791C30 44.6102 31.9484 46.5553 34.2368 45.9669C40.0772 44.4654 44.6755 39.9329 46.1988 34.1762C46.7957 31.9205 44.8224 30 42.4574 30H34.2822C31.9172 30 30 31.8898 30 34.2209V42.2791Z" fill="url(#paint0_linear_158_10)"/>
<path d="M42.4574 63C44.8224 63 46.7957 61.0795 46.1988 58.8238C44.6755 53.0671 40.0772 48.5346 34.2368 47.0331C31.9484 46.4447 30 48.3898 30 50.7209L30 58.7791C30 61.1102 31.9172 63 34.2822 63H42.4574Z" fill="url(#paint1_linear_158_10)"/>
<path d="M62.8935 42.2794C63.4904 44.5351 61.4859 46.5109 59.1975 45.9225C53.3571 44.421 48.7588 39.8886 47.2355 34.1318C46.6386 31.8761 48.643 29.9004 50.9315 30.4887C56.7719 31.9902 61.3702 36.5227 62.8935 42.2794Z" fill="url(#paint2_linear_158_10)"/>
<path d="M59.1975 46.9887C61.4859 46.4004 63.4904 48.3761 62.8935 50.6318C61.3702 56.3886 56.7719 60.921 50.9315 62.4225C48.643 63.0109 46.6386 61.0351 47.2355 58.7794C48.7588 53.0227 53.3571 48.4902 59.1975 46.9887Z" fill="url(#paint3_linear_158_10)"/>
</g>
<path d="M30 42.2791C30 44.6102 31.9205 46.5553 34.1762 45.9669C39.9329 44.4654 44.4654 39.9329 45.9669 34.1762C46.5553 31.9205 44.6102 30 42.2791 30H34.2209C31.8898 30 30 31.8898 30 34.2209V42.2791Z" fill="url(#paint4_linear_158_10)"/>
<path d="M42.2791 63C44.6102 63 46.5553 61.0795 45.9669 58.8238C44.4654 53.0671 39.9329 48.5346 34.1762 47.0331C31.9205 46.4447 30 48.3898 30 50.7209L30 58.7791C30 61.1102 31.8898 63 34.2209 63H42.2791Z" fill="url(#paint5_linear_158_10)"/>
<path d="M62.4225 42.2794C63.0109 44.5351 61.0351 46.5109 58.7794 45.9225C53.0227 44.421 48.4902 39.8886 46.9887 34.1318C46.4004 31.8761 48.3761 29.9004 50.6318 30.4887C56.3886 31.9902 60.921 36.5227 62.4225 42.2794Z" fill="url(#paint6_linear_158_10)"/>
<path d="M58.7794 46.9887C61.0351 46.4004 63.0109 48.3761 62.4225 50.6318C60.921 56.3886 56.3886 60.921 50.6318 62.4225C48.3761 63.0109 46.4004 61.0351 46.9887 58.7794C48.4902 53.0227 53.0227 48.4902 58.7794 46.9887Z" fill="url(#paint7_linear_158_10)"/>
<defs>
<filter id="filter0_f_158_10" x="0" y="0" width="93" height="93" filterUnits="userSpaceOnUse" color-interpolation-filters="sRGB">
<feFlood flood-opacity="0" result="BackgroundImageFix"/>
<feBlend mode="normal" in="SourceGraphic" in2="BackgroundImageFix" result="shape"/>
<feGaussianBlur stdDeviation="15" result="effect1_foregroundBlur_158_10"/>
</filter>
<linearGradient id="paint0_linear_158_10" x1="32.7574" y1="32.7574" x2="51.2714" y2="57.9679" gradientUnits="userSpaceOnUse">
<stop stop-color="#D259FE"/>
<stop offset="0.284317" stop-color="#AD59FF"/>
<stop offset="1" stop-color="#7B67FF"/>
</linearGradient>
<linearGradient id="paint1_linear_158_10" x1="46.5" y1="30" x2="46.5" y2="63" gradientUnits="userSpaceOnUse">
<stop offset="0.194311" stop-color="#FF5548"/>
<stop offset="1" stop-color="#FF358C"/>
</linearGradient>
<linearGradient id="paint2_linear_158_10" x1="46.4999" y1="30" x2="38.8102" y2="59.451" gradientUnits="userSpaceOnUse">
<stop stop-color="#39FF80"/>
<stop offset="0.524332" stop-color="#1CDDDD"/>
</linearGradient>
<linearGradient id="paint3_linear_158_10" x1="47.129" y1="46.8837" x2="63.09" y2="46.8837" gradientUnits="userSpaceOnUse">
<stop stop-color="#FF7E3E"/>
<stop offset="1" stop-color="#FFC046"/>
</linearGradient>
<linearGradient id="paint4_linear_158_10" x1="32.7179" y1="32.7574" x2="51.3102" y2="57.7121" gradientUnits="userSpaceOnUse">
<stop stop-color="#D259FE"/>
<stop offset="0.284317" stop-color="#AD59FF"/>
<stop offset="1" stop-color="#7B67FF"/>
</linearGradient>
<linearGradient id="paint5_linear_158_10" x1="46.2638" y1="30" x2="46.2638" y2="63" gradientUnits="userSpaceOnUse">
<stop offset="0.194311" stop-color="#FF5548"/>
<stop offset="1" stop-color="#FF358C"/>
</linearGradient>
<linearGradient id="paint6_linear_158_10" x1="46.2636" y1="30" x2="38.4768" y2="59.3961" gradientUnits="userSpaceOnUse">
<stop stop-color="#39FF80"/>
<stop offset="0.524332" stop-color="#1CDDDD"/>
</linearGradient>
<linearGradient id="paint7_linear_158_10" x1="46.8837" y1="46.8837" x2="62.6163" y2="46.8837" gradientUnits="userSpaceOnUse">
<stop stop-color="#FF7E3E"/>
<stop offset="1" stop-color="#FFC046"/>
</linearGradient>
</defs>
</svg>
